 <svg width="20" height="15" viewBox="0 0 20 15" fill="none" xmlns="http://www.w3.org/2000/svg">
<g clip-path="url(#clip0_326_639)">
<path d="M11.2846 1.2243C11.2846 1.01856 11.2817 0.849655 11.285 0.68075C11.2934 0.296373 11.5745 0.00428068 11.9381 4.74619e-05C12.3058 -0.00418576 12.597 0.275207 12.6153 0.658314C12.6236 0.839072 12.6169 1.02068 12.6169 1.2243C13.0767 1.2243 13.5124 1.23022 13.948 1.22303C14.686 1.21033 15.2962 1.47702 15.7252 2.09253C15.878 2.31223 15.9905 2.57342 16.0684 2.83207C16.4411 4.07114 16.8005 5.31443 17.1533 6.55943C17.2412 6.86972 17.414 7.07376 17.7035 7.19949C18.0604 7.354 18.4123 7.52079 18.7609 7.69351C19.5585 8.08931 19.9771 8.74335 19.9883 9.6446C19.9962 10.2855 20.0233 10.9332 19.9479 11.5665C19.8284 12.5714 18.985 13.2991 17.9892 13.3351C17.5939 13.3495 17.1979 13.3423 16.8026 13.3381C16.6943 13.3368 16.6335 13.3593 16.5877 13.4752C16.2112 14.4298 15.4211 14.9937 14.4678 14.9996C13.4966 15.0056 12.7027 14.4468 12.31 13.468C12.2671 13.3605 12.2134 13.3381 12.1113 13.3381C10.5637 13.3406 9.01602 13.3415 7.46795 13.3368C7.348 13.3364 7.30302 13.3817 7.26054 13.4875C6.88071 14.4336 6.08106 14.9979 5.12897 14.9996C4.16939 15.0013 3.36308 14.4341 2.98449 13.4778C2.9391 13.3631 2.88079 13.3385 2.77084 13.3377C2.43848 13.3351 2.10155 13.3525 1.77419 13.3042C0.728396 13.1506 0.00371296 12.287 0.00121405 11.2084C-0.00336728 9.22593 -3.54028e-05 7.24394 -3.54028e-05 5.26152C-3.54028e-05 4.6621 -0.000451887 4.06225 0.000381082 3.46282C0.00204702 2.11454 0.874166 1.22599 2.20608 1.22514C5.1348 1.2226 8.06394 1.2243 10.9927 1.2243C11.0822 1.2243 11.1709 1.2243 11.2846 1.2243ZM14.8114 3.35022C14.736 2.82784 14.4703 2.58104 13.9784 2.5802C12.6528 2.57766 11.3275 2.57935 10.0018 2.57935C7.39256 2.57935 4.78329 2.57893 2.17401 2.57977C1.65591 2.5802 1.3348 2.87525 1.33438 3.36123C1.33188 5.9782 1.33188 8.59518 1.33438 11.2117C1.3348 11.6541 1.64549 11.9712 2.07947 11.9839C2.3152 11.9907 2.55135 11.9805 2.78708 11.9877C2.8937 11.9911 2.94076 11.953 2.98158 11.8505C3.36516 10.8926 4.16814 10.3266 5.12647 10.3287C6.07939 10.3308 6.88279 10.8955 7.26096 11.8361C7.30302 11.9403 7.34633 11.989 7.46753 11.9885C9.01519 11.9839 10.5624 11.9847 12.1101 11.9873C12.213 11.9873 12.2654 11.9619 12.3083 11.8556C12.6998 10.8862 13.4878 10.3283 14.4482 10.3287C15.4124 10.3295 16.1983 10.8896 16.5973 11.8497C16.6219 11.9085 16.7068 11.9771 16.7655 11.9788C17.1537 11.9902 17.5427 11.9923 17.9313 11.9818C18.3186 11.9712 18.6231 11.677 18.6535 11.2968C18.6643 11.1643 18.6551 11.0301 18.6551 10.8811C18.5514 10.8684 18.4569 10.854 18.3619 10.8456C18.0304 10.8151 17.6981 10.7905 17.367 10.7567C17.0363 10.7228 16.7905 10.4616 16.7672 10.1301C16.7443 9.80377 16.9367 9.51676 17.2583 9.43844C17.389 9.40669 17.5327 9.41897 17.6693 9.42743C17.9838 9.44733 18.2974 9.47696 18.6347 9.5049C18.576 9.19545 18.4169 9.0185 18.1758 8.90505C17.7422 8.70101 17.312 8.4885 16.8751 8.29251C16.7356 8.22985 16.579 8.1744 16.4294 8.17228C15.604 8.16085 14.7777 8.17144 13.9522 8.16551C13.1205 8.15916 12.5366 7.56566 12.5316 6.72579C12.5274 6.06964 12.5262 5.41392 12.532 4.75777C12.5391 3.95176 13.1263 3.35826 13.9164 3.35064C14.215 3.34768 14.5124 3.35022 14.8114 3.35022Z" fill="#1581FF"/>
<path d="M7.14562 5.74232C7.14562 5.42525 7.14104 5.10818 7.14646 4.79111C7.16145 3.92923 7.7362 3.35351 8.58166 3.35013C8.95608 3.34843 9.3305 3.34632 9.70492 3.35097C10.4009 3.35986 10.9981 3.87166 11.0389 4.57564C11.0835 5.34059 11.0822 6.11188 11.0468 6.87767C11.0143 7.57954 10.5121 8.09387 9.8232 8.14721C9.32092 8.18616 8.8099 8.1815 8.30845 8.13367C7.67789 8.07356 7.19519 7.52874 7.1577 6.88317C7.13563 6.50388 7.15354 6.12246 7.15354 5.74232C7.15104 5.74232 7.14854 5.74232 7.14562 5.74232Z" fill="#1581FF"/>
<path d="M4.95199 5.08199C5.2023 5.08199 5.4297 5.07903 5.65669 5.08242C6.05526 5.08877 6.34014 5.36689 6.34305 5.7483C6.34597 6.13099 6.06651 6.42139 5.67251 6.43451C5.44428 6.44213 5.21521 6.43578 4.95158 6.43578C4.95158 6.68766 4.95699 6.93107 4.95033 7.17448C4.94242 7.45091 4.81664 7.66426 4.57133 7.78533C4.35059 7.89412 4.12402 7.881 3.91786 7.74046C3.72795 7.61134 3.62133 7.42762 3.62091 7.18972C3.62008 6.95054 3.62091 6.71178 3.62091 6.4362C3.37019 6.4362 3.13071 6.4434 2.89165 6.43451C2.41727 6.41715 2.10865 5.98113 2.25276 5.54045C2.34064 5.27164 2.57678 5.09258 2.86541 5.08369C3.10114 5.07649 3.33687 5.07649 3.57218 5.07268C3.57801 5.07268 3.58384 5.06633 3.61966 5.04644C3.61966 4.83393 3.61758 4.60406 3.62008 4.3742C3.62466 3.9585 3.90245 3.65667 4.27937 3.65455C4.65296 3.65244 4.94242 3.9568 4.95158 4.36785C4.95616 4.59856 4.95199 4.82927 4.95199 5.08199Z" fill="#1581FF"/>
</g>
<defs>
<clipPath id="clip0_326_639">
<rect width="20" height="15" fill="white"/>
</clipPath>
</defs>
</svg>